<?xml version="1.0" encoding="UTF-8"?>
<svg xmlns="http://www.w3.org/2000/svg" viewBox="0 0 64 64" width="40" height="40"><g id="Layer_47" data-name="Layer 47"><path d="M32,61a5.69,5.69,0,0,1-4-1.66L4.66,36a5.67,5.67,0,0,1,8-8L32,47.32,51.33,28a5.67,5.67,0,0,1,8,8L36,59.34A5.69,5.69,0,0,1,32,61ZM8.67,28.33a3.67,3.67,0,0,0-2.6,6.26L29.41,57.93a3.68,3.68,0,0,0,5.18,0L57.93,34.59a3.67,3.67,0,1,0-5.19-5.18l-20,20a1,1,0,0,1-.71.29h0a1,1,0,0,1-.71-.29l-20-20A3.64,3.64,0,0,0,8.67,28.33Z"/><path d="M32,37.66A5.68,5.68,0,0,1,28,36L4.66,12.67a5.66,5.66,0,0,1,8-8L32,24,51.33,4.66a5.66,5.66,0,0,1,8,8L36,36A5.68,5.68,0,0,1,32,37.66ZM8.67,5A3.65,3.65,0,0,0,5,8.67a3.64,3.64,0,0,0,1.07,2.59L29.41,34.59a3.66,3.66,0,0,0,5.18,0L57.93,11.26a3.67,3.67,0,1,0-5.19-5.19l-20,20a1,1,0,0,1-1.42,0l-20-20A3.67,3.67,0,0,0,8.67,5Z"/></g></svg>
