<svg id="Capa_1" enable-background="new 0 0 512.039 512.039" height="512" viewBox="0 0 512.039 512.039" width="512" xmlns="http://www.w3.org/2000/svg"><g><g><g><path d="m217.884 413.051c-3.961 5.896-10.559 9.416-17.65 9.416-7.499 0-14.521-4.021-18.328-10.494-2.1-3.571-6.697-4.762-10.267-2.663-3.571 2.1-4.763 6.696-2.663 10.267 6.489 11.035 18.467 17.891 31.258 17.891 12.096 0 23.348-6 30.101-16.051 2.31-3.438 1.395-8.098-2.043-10.408s-8.097-1.396-10.408 2.042z"/><path d="m342.397 322.938h-3.924c-.281 0-.538-.167-.612-.396-12.46-38.727-40.869-70.64-77.944-87.558-3.766-1.721-8.217-.059-9.937 3.71s-.059 8.217 3.71 9.937c33.246 15.171 58.721 43.784 69.892 78.506 2.08 6.461 8.064 10.802 14.892 10.802h3.924c18.786 0 34.07 15.284 34.07 34.07s-15.284 34.07-34.07 34.07h-7.563c-6.403 0-12.108 3.857-14.535 9.829-5.888 14.493-14.277 27.7-24.936 39.252-2.81 3.044-2.618 7.789.426 10.598 1.442 1.331 3.266 1.988 5.084 1.988 2.021 0 4.036-.812 5.514-2.414 11.886-12.881 21.241-27.61 27.809-43.777.117-.289.368-.476.639-.476h7.563c27.058 0 49.07-22.013 49.07-49.07s-22.015-49.071-49.072-49.071z"/><path d="m269.984 476.474c-20.928 13.454-45.206 20.565-70.208 20.565-26.384 0-51.782-7.855-73.451-22.719-21.17-14.521-37.447-34.72-47.072-58.414-2.425-5.971-8.13-9.828-14.534-9.828h-7.564c-18.787 0-34.07-15.284-34.07-34.07s15.284-34.07 34.07-34.07h3.923c6.829 0 12.814-4.342 14.892-10.803 11.455-35.604 37.735-64.576 72.102-79.489 3.8-1.648 5.543-6.065 3.895-9.865-1.649-3.8-6.066-5.545-9.866-3.895-38.325 16.63-67.633 48.943-80.41 88.656-.074.229-.332.396-.612.396h-3.923c-27.058 0-49.07 22.013-49.07 49.07s22.013 49.07 49.07 49.07h7.564c.27 0 .521.187.637.474 10.734 26.426 28.883 48.95 52.485 65.139 24.177 16.583 52.509 25.349 81.935 25.349 27.884 0 54.967-7.936 78.32-22.948 3.484-2.239 4.493-6.88 2.253-10.364-2.242-3.487-6.883-4.496-10.366-2.254z"/><path d="m144.754 353.854v18.674c0 4.143 3.358 7.5 7.5 7.5s7.5-3.357 7.5-7.5v-18.674c0-4.143-3.358-7.5-7.5-7.5s-7.5 3.357-7.5 7.5z"/><path d="m239.797 372.527c0 4.143 3.358 7.5 7.5 7.5s7.5-3.357 7.5-7.5v-18.674c0-4.143-3.358-7.5-7.5-7.5s-7.5 3.357-7.5 7.5z"/><path d="m133.502 312.379c-7.793 3.638-14.999 8.898-20.836 15.212-2.812 3.042-2.626 7.787.416 10.599 1.442 1.334 3.268 1.993 5.089 1.993 2.018 0 4.031-.81 5.509-2.408 4.53-4.899 10.12-8.98 16.167-11.804 3.753-1.752 5.375-6.215 3.624-9.968s-6.216-5.378-9.969-3.624z"/><path d="m266.049 312.379c-3.751-1.754-8.217-.13-9.968 3.624-1.752 3.753-.13 8.216 3.624 9.968 6.047 2.823 11.638 6.904 16.167 11.804 1.479 1.599 3.49 2.408 5.509 2.408 1.821 0 3.646-.659 5.09-1.993 3.041-2.812 3.228-7.557.415-10.599-5.838-6.314-13.043-11.574-20.837-15.212z"/><path d="m170.189 235.738c4.14-.147 7.375-3.623 7.228-7.763-.23-6.443 2.942-10.869 5.644-13.447 5-4.771 12.606-7.37 19.856-6.764 8.961.741 19.303 5.927 21.729 14.402 4.272 14.924-5.481 26.386-16.374 34.935-8.748 6.866-18.663 14.648-21.819 27.108-2.482 9.802 1.081 20.205 8.664 25.301 1.284.862 2.737 1.275 4.176 1.275 2.414 0 4.785-1.164 6.232-3.318 2.31-3.438 1.395-8.098-2.043-10.408-2.305-1.549-3.398-5.575-2.488-9.166 1.9-7.502 9.342-13.344 16.54-18.992 15.828-12.425 27.541-29.879 21.533-50.863-3.26-11.387-15.319-23.602-34.913-25.223-11.566-.948-23.319 3.104-31.448 10.861-6.962 6.644-10.613 15.464-10.278 24.834.146 4.14 3.628 7.378 7.761 7.228z"/></g><g><path d="m478.903 0h-223.521c-13.814 0-25.053 11.238-25.053 25.053v138.427c0 13.814 11.239 25.053 25.053 25.053h77.703c.312 0 .598.172.744.448l19.315 36.438c2.755 5.195 8.118 8.422 13.999 8.422 5.88 0 11.243-3.228 13.997-8.423l19.313-36.435c.146-.277.433-.45.746-.45h77.702c13.814 0 25.053-11.238 25.053-25.053v-138.427c.001-13.815-11.237-25.053-25.051-25.053zm10.052 163.48c0 5.543-4.51 10.053-10.053 10.053h-77.702c-5.879 0-11.242 3.227-13.999 8.423l-19.314 36.437c-.07.135-.237.448-.744.448-.508 0-.675-.314-.745-.448l-19.314-36.437c-2.754-5.195-8.118-8.423-13.998-8.423h-77.703c-5.543 0-10.053-4.51-10.053-10.053v-138.427c0-5.543 4.51-10.053 10.053-10.053h223.521c5.543 0 10.053 4.51 10.053 10.053v138.427z"/><path d="m398.03 28.472c-12.074 0-23.236 5.401-30.887 14.424-7.65-9.022-18.812-14.424-30.887-14.424-21.688 0-39.864 17.889-41.381 40.726-.655 9.864 1.991 20.218 7.652 29.944 10.118 17.382 43.48 46.535 57.354 58.262 2.104 1.778 4.683 2.668 7.262 2.668 2.578 0 5.156-.889 7.259-2.667 4.868-4.113 17.518-14.957 29.81-26.774 2.985-2.87 3.079-7.618.208-10.604-2.869-2.984-7.617-3.078-10.604-.208-10.302 9.904-20.885 19.126-26.673 24.072-20.813-17.76-44.62-40.217-51.651-52.294-4.151-7.133-6.104-14.534-5.648-21.404.995-14.983 12.598-26.72 26.414-26.72 10.44 0 19.838 6.503 23.942 16.566 1.15 2.823 3.896 4.668 6.944 4.668s5.794-1.845 6.944-4.668c4.104-10.063 13.502-16.566 23.942-16.566 13.815 0 25.418 11.736 26.413 26.721.584 8.771-2.76 17.615-7.786 24.68-2.401 3.375-1.611 8.058 1.764 10.459 3.377 2.401 8.059 1.612 10.461-1.767 7.033-9.887 11.342-22.109 10.528-34.367-1.517-22.839-19.694-40.727-41.38-40.727z"/></g></g></g></svg>