<svg id="Capa_1" enable-background="new 0 0 512 512" height="512" viewBox="0 0 512 512" width="512" xmlns="http://www.w3.org/2000/svg"><g><path d="m234 426c0-22.056-17.944-40-40-40s-40 17.944-40 40 17.944 40 40 40 40-17.944 40-40zm-65 0c0-13.785 11.215-25 25-25s25 11.215 25 25-11.215 25-25 25-25-11.215-25-25z"/><path d="m255 374v-15c0-4.143-3.357-7.5-7.5-7.5s-7.5 3.357-7.5 7.5v15c0 4.143 3.357 7.5 7.5 7.5s7.5-3.357 7.5-7.5z"/><path d="m148 374v-15c0-4.143-3.357-7.5-7.5-7.5s-7.5 3.357-7.5 7.5v15c0 4.143 3.357 7.5 7.5 7.5s7.5-3.357 7.5-7.5z"/><path d="m464 146h-6.624c-5.714-29.308-20.597-56.464-42.774-77.076 0 0-1.759-1.236-3.009-3.29-.736-2.378-.736-4.892-.001-7.27 4.842-15.637 8.698-36.874-.42-49.243-3.068-4.161-8.992-9.121-19.8-9.121-26.33 0-42.236 13.191-51.508 26.155-6.373-3.902-13.86-6.155-21.864-6.155-8.005 0-15.493 2.254-21.867 6.156-9.245-12.922-25.147-26.156-51.505-26.156-10.808 0-16.732 4.96-19.801 9.121-9.118 12.369-5.262 33.606-.421 49.243.736 2.378.736 4.892.001 7.27-.637 2.057-2.49 2.788-4.01 4.227-21.961 20.788-36.343 47.185-41.856 76.14h-6.541c-26.468 0-48 21.532-48 48 0 6.526 1.314 12.75 3.684 18.427-21.465 11.351-39.691 27.999-52.962 48.494-9.926 15.329-16.708 32.311-20.132 50.078h-6.59c-26.468 0-48 21.532-48 48s21.532 48 48 48h8.908c5.511 20.428 15.552 39.521 29.568 55.754 1.483 1.718 3.575 2.599 5.68 2.599 1.736 0 3.481-.6 4.898-1.823 3.135-2.707 3.482-7.442.775-10.578-19.88-23.028-30.829-52.487-30.829-82.952v-32c0-47.334 26.76-91.07 68.578-112.788 8.81 10.266 21.865 16.788 36.422 16.788h8.9c16.321 60.414 71.598 105 137.1 105 1.001 0 2.001-.015 3-.036v23.036c0 70.028-56.972 127-127 127-25.673 0-50.402-7.619-71.517-22.035-3.418-2.334-8.087-1.455-10.423 1.966-2.335 3.421-1.455 8.087 1.966 10.423 23.617 16.124 51.271 24.646 79.974 24.646 65.503 0 120.779-44.586 137.1-105h8.9c26.467 0 48-21.532 48-48 0-9.454-2.744-18.532-7.836-26.288 12.869-6.273 24.831-14.525 35.468-24.6 3.008-2.849 3.137-7.596.288-10.603-2.849-3.009-7.596-3.136-10.603-.288-23.679 22.427-54.689 34.779-87.317 34.779-70.028 0-127-56.972-127-127v-32c0-29.613 9.958-57.472 28.327-79.997-.21 8.252 1.205 16.048 5.501 21.875 3.067 4.161 8.993 9.121 19.8 9.121 26.331 0 42.237-13.192 51.508-26.154 6.373 3.902 13.86 6.155 21.864 6.155s15.491-2.253 21.864-6.154c9.271 12.962 25.178 26.154 51.508 26.154 10.807 0 16.732-4.96 19.8-9.121 4.282-5.808 5.702-13.571 5.504-21.792 18.157 22.472 28.324 50.757 28.324 79.913v32c0 23.569-6.501 46.576-18.801 66.534-2.173 3.525-1.076 8.146 2.45 10.319 1.227.756 2.585 1.116 3.928 1.116 2.516 0 4.975-1.267 6.392-3.566 7.191-11.668 12.592-24.272 16.127-37.403h8.904c26.468 0 48-21.532 48-48s-21.532-48-48-48zm-416 246c-18.196 0-33-14.804-33-33s14.804-33 33-33h4.523c-.334 3.978-.523 7.978-.523 12v13.5h-15c-4.143 0-7.5 3.357-7.5 7.5s3.357 7.5 7.5 7.5h15v3.5c0 7.407.58 14.761 1.715 22zm325-33c0 18.196-14.804 33-33 33h-5.706c1.12-7.172 1.706-14.519 1.706-22v-3.5h15c4.143 0 7.5-3.357 7.5-7.5s-3.357-7.5-7.5-7.5h-15v-5.64c10.29-1.302 20.341-3.717 30.001-7.182 4.533 5.784 6.999 12.886 6.999 20.322zm-201-132c-18.196 0-33-14.804-33-33s14.804-33 33-33h4.501c-.327 3.967-.501 7.968-.501 12v13.5h-15c-4.143 0-7.5 3.357-7.5 7.5s3.357 7.5 7.5 7.5h15v3.5c0 7.481.586 14.828 1.706 22zm72.628-118c-4.929 0-6.771-1.725-7.727-3.022-4.032-5.469-3.329-19.229 1.835-35.908 1.634-5.279 1.634-10.861-.001-16.141-5.163-16.679-5.866-30.438-1.834-35.906.956-1.298 2.798-3.022 7.727-3.022 17.256 0 30.777 7.141 40.243 21.23-5.552 7.12-8.871 16.061-8.871 25.769s3.32 18.65 8.872 25.771c-9.462 14.089-22.983 21.229-40.244 21.229zm46.372-47c0-14.888 12.112-27 27-27s27 12.112 27 27-12.112 27-27 27-27-12.112-27-27zm108.099 43.978c-.956 1.298-2.798 3.022-7.727 3.022-17.261 0-30.782-7.14-40.244-21.229 5.552-7.121 8.872-16.063 8.872-25.771s-3.32-18.65-8.872-25.771c9.462-14.089 22.983-21.229 40.244-21.229 4.929 0 6.771 1.725 7.727 3.022 4.032 5.469 3.329 19.228-1.835 35.906-1.634 5.279-1.634 10.861.001 16.141 5.163 16.68 5.866 30.44 1.834 35.909zm64.901 121.022h-5.726c1.131-7.244 1.726-14.596 1.726-22v-3.5h15c4.143 0 7.5-3.357 7.5-7.5s-3.357-7.5-7.5-7.5h-15v-13.5c0-4.019-.182-8.021-.522-12h4.522c18.196 0 33 14.804 33 33s-14.804 33-33 33z"/><path d="m318 221c-22.056 0-40 17.944-40 40s17.944 40 40 40 40-17.944 40-40-17.944-40-40-40zm0 65c-13.785 0-25-11.215-25-25s11.215-25 25-25 25 11.215 25 25-11.215 25-25 25z"/><path d="m364 194v15c0 4.143 3.357 7.5 7.5 7.5s7.5-3.357 7.5-7.5v-15c0-4.143-3.357-7.5-7.5-7.5s-7.5 3.357-7.5 7.5z"/><path d="m257 194v15c0 4.143 3.357 7.5 7.5 7.5s7.5-3.357 7.5-7.5v-15c0-4.143-3.357-7.5-7.5-7.5s-7.5 3.357-7.5 7.5z"/></g></svg>