<svg id="Capa_1" enable-background="new 0 0 512 512" height="512" viewBox="0 0 512 512" width="512" xmlns="http://www.w3.org/2000/svg"><g><path d="m486.081 7.968c-8.57-9.729-23.469-10.666-33.218-2.083l-156.86 138.406h-58.978l59.302-100.814c3.187-5.418 4.074-11.752 2.498-17.835-1.577-6.085-5.43-11.191-10.849-14.375-8.663-5.093-19.283-3.988-26.689 1.963-20.694-8.778-42.668-13.23-65.402-13.23-41.899 0-82.021 15.526-112.974 43.719-29.36 26.742-48.167 62.711-53.366 101.786-5.576 2.355-9.499 7.878-9.499 14.301v16.032c0 8.556 6.96 15.516 15.516 15.516h1.663l12.755 76.53c1.898 11.394 11.661 19.664 23.212 19.664h60.452l-89.606 79.064c-9.726 8.59-10.655 23.491-2.075 33.211 2.758 3.13 6.271 5.431 10.147 6.735v27.035c-18.24 3.516-32.064 19.591-32.064 38.842 0 21.816 17.749 39.564 39.564 39.564s39.564-17.749 39.564-39.564c0-19.251-13.824-35.327-32.064-38.842v-27.053c2.83-.953 5.475-2.433 7.786-4.406l18.117 18.116c7.473 7.473 17.408 11.588 27.976 11.588h77.646c10.567 0 20.503-4.115 27.977-11.588l40.609-40.609 6.787 8.384c-8.824 13.126-13.478 28.368-13.478 44.33 0 21.637 8.684 41.275 22.735 55.643.36.468.799.906 1.267 1.267 14.368 14.051 34.006 22.735 55.643 22.735s41.275-8.684 55.643-22.736c.468-.361.906-.799 1.267-1.267 14.051-14.368 22.735-34.006 22.735-55.643 0-21.407-8.595-41.009-22.57-55.417-.419-.592-.957-1.144-1.544-1.574-13.086-12.775-30.551-21.125-49.986-22.464-4.13-.269-7.713 2.834-7.998 6.967-.285 4.132 2.835 7.713 6.967 7.998 13.406.923 25.648 5.968 35.543 13.825l-28.07 28.07-109.955-135.829c.821-3.17 1.259-6.492 1.259-9.914 0-3.296-.411-6.497-1.175-9.56l71.514-63.101h73.629l-12.344 74.064c-.688 4.131-4.228 7.129-8.416 7.129h-90.628c-4.142 0-7.5 3.358-7.5 7.5s3.358 7.5 7.5 7.5h90.628c11.551 0 21.312-8.27 23.212-19.664l12.755-76.53h1.663c8.556 0 15.516-6.96 15.516-15.516v-16.032c0-8.556-6.96-15.516-15.516-15.516h-37.159l116.86-103.112c9.726-8.59 10.655-23.49 2.076-33.21zm-207.078 151.323-19.34 17.064h-41.5l10.038-17.064zm-2.94-136.269c1.469 0 2.957.379 4.313 1.176 1.962 1.153 3.358 3.002 3.929 5.206.571 2.206.25 4.502-.906 6.467l-80.162 136.276c-1.549 2.635-4.303 4.208-7.367 4.208-1.529 0-2.98-.397-4.314-1.181-1.963-1.154-3.358-3.003-3.929-5.207-.572-2.206-.25-4.502.906-6.468l80.161-136.274c1.587-2.699 4.441-4.203 7.369-4.203zm-202.646 53.375 85.023 67.893h-113.568c3.824-24.724 13.656-47.986 28.545-67.893zm19.594-21.588c17.813-16.225 38.964-27.836 61.749-34.189l2.535 18.97c.504 3.769 3.724 6.508 7.425 6.508.331 0 .666-.022 1.002-.067 4.106-.549 6.989-4.322 6.441-8.427l-2.713-20.304c8.666-1.515 17.505-2.3 26.435-2.3 19.52 0 38.42 3.597 56.303 10.701l-66.508 113.064-9.103-68.129c-.549-4.106-4.32-6.993-8.427-6.441-4.106.549-6.989 4.322-6.441 8.427l8.238 61.66-86.972-69.45c3.175-3.477 6.523-6.822 10.036-10.023zm-57.965 121.03v-16.032c0-.285.231-.516.516-.516h138.394c-1.793 4.579-2.108 9.588-.851 14.439.233.9.531 1.771.862 2.625h-138.405c-.284 0-.516-.231-.516-.516zm38.146 96.709c-4.188 0-7.728-2.998-8.416-7.129l-12.344-74.064h190.232l-37.545 33.128c-.406-.012-.809-.031-1.218-.031-20.565 0-37.509 15.774-39.385 35.857l-13.872 12.24h-77.452zm155.274-8.532c0 13.545-11.02 24.564-24.564 24.564s-24.564-11.02-24.564-24.564 11.02-24.564 24.564-24.564 24.564 11.019 24.564 24.564zm-24.565 39.565c.574 0 1.144-.019 1.712-.043l26.828 33.14h-83.334l40.535-35.766c4.427 1.716 9.233 2.669 14.259 2.669zm-149.935 74.277 112.994-99.7c2.101 5.471 5.383 10.357 9.534 14.351l-111.233 98.144c-1.565 1.378-3.569 2.137-5.643 2.137-2.453 0-4.786-1.051-6.405-2.889-3.112-3.525-2.773-8.929.753-12.043zm30.209 94.578c0 13.545-11.02 24.564-24.564 24.564s-24.564-11.02-24.564-24.564c0-10.93 7.177-20.211 17.064-23.389v23.389c0 4.142 3.358 7.5 7.5 7.5s7.5-3.358 7.5-7.5v-23.389c9.887 3.177 17.064 12.459 17.064 23.389zm131.831-62.792c-4.64 4.64-10.809 7.195-17.37 7.195h-77.646c-6.561 0-12.73-2.555-17.37-7.195l-17.442-17.441 45.929-40.525h112.477l13.148 16.241zm67.981-9.292 34.709 42.875-29.195 29.195c-8.735-11.024-13.971-24.942-13.971-40.068 0-11.374 2.904-22.299 8.457-32.002zm16.121 82.677 29.596-29.596c3.209 1.594 6.78 2.454 10.479 2.454 3.637 0 7.213-.872 10.444-2.474l29.615 29.615c-11.024 8.736-24.941 13.972-40.067 13.972s-29.043-5.236-40.067-13.971zm90.741-10.607-29.606-29.606c3.215-6.505 3.302-14.281.005-20.927l29.586-29.586c8.759 11.064 13.987 25.01 13.987 40.052-.001 15.126-5.237 29.043-13.972 40.067zm-44.044-45.443c2.959 3.66 2.392 9.048-1.264 12.01-1.937 1.568-3.982 1.897-5.358 1.897-2.593 0-5.014-1.153-6.641-3.161l-111.976-138.322c5.166-2.589 9.686-6.274 13.26-10.751zm-124.275-197.855 187.997-165.879 11.138 12.935-186.07 164.179c-3.468-4.635-7.931-8.483-13.065-11.235zm181.774-69.833c.285 0 .516.231.516.516v16.032c0 .285-.231.516-.516.516h-73.499l19.34-17.064zm69.774-129.358-41.165 36.323-11.138-12.936 41.008-36.183c3.535-3.113 8.938-2.779 12.048.751 3.112 3.527 2.773 8.931-.753 12.045z"/></g></svg>