<svg id="Capa_1" enable-background="new 0 0 512 512" height="512" viewBox="0 0 512 512" width="512" xmlns="http://www.w3.org/2000/svg"><g><path d="m506.344 412.597c-.853-9.596-8.36-16.895-17.04-16.592-16.198.539-29.826 8.587-37.725 16.407-9.268-6.371-26.194-16.673-47.606-23.912-1.513-44.374-15.53-85.592-37.232-116.273 6.922-9.506 11.898-20.481 14.872-32.885 2.653.604 5.374.914 8.103.914 20.142 0 36.529-16.387 36.529-36.529s-16.387-36.529-36.529-36.529c-3.548 0-7.05.514-10.407 1.513-5.78-20.583-15.946-39.742-29.45-55.605 8.496-2.625 15.277-7.443 19.137-14.314 6.58-11.719 3.344-26.57-8.67-39.738-.779-.85-.779-1.825.011-2.688 12.003-13.156 15.239-28.007 8.658-39.728-10.205-18.163-40.797-22.016-69.639-8.775-5.385 2.466-13.646 7.101-21.696 13.027-5.481-5.679-13.162-9.222-21.66-9.222s-16.178 3.543-21.66 9.222c-8.05-5.926-16.31-10.56-21.69-13.024-28.849-13.244-59.441-9.392-69.647 8.774-6.58 11.719-3.344 26.569 8.671 39.739.779.85.779 1.825-.012 2.687-12.003 13.155-15.239 28.006-8.658 39.727 3.86 6.87 10.64 11.688 19.136 14.312-13.504 15.863-23.67 35.021-29.449 55.604-3.358-.999-6.859-1.513-10.407-1.513-20.142 0-36.529 16.387-36.529 36.529s16.387 36.529 36.529 36.529c2.729 0 5.451-.31 8.103-.914 2.975 12.407 7.952 23.384 14.876 32.892-5.118 7.232-9.81 15.025-13.972 23.255-1.869 3.696-.388 8.208 3.308 10.077 1.085.549 2.241.809 3.379.809 2.739 0 5.378-1.506 6.699-4.117 3.269-6.465 6.889-12.625 10.795-18.416 3.834 3.647 8.044 7.002 12.641 10.051-.328 1.594-.569 3.202-.681 4.823-.746 10.576 2.894 20.747 10.25 28.639 9.743 10.455 24.914 15.431 39.954 12.182 7.396 13.492 22.292 22.135 38.365 22.135s30.968-8.641 38.365-22.134c14.841 3.212 30.085-1.592 39.955-12.183 7.355-7.891 10.995-18.062 10.25-28.63-.112-1.625-.354-3.236-.682-4.831 4.6-3.051 8.813-6.409 12.648-10.058 27.888 41.369 40.196 101.147 27.679 158.076-11.516-11.033-26.883-16.45-44.394-15.557 4.041-22.029 3.571-45.261-1.59-67.928-.919-4.038-4.939-6.566-8.978-5.648-4.039.92-6.567 4.939-5.648 8.978 7.349 32.276 4.309 65.736-8.562 94.216-2.135 4.727-3.222 9.664-3.371 14.553-36.978-2.553-74.341-2.553-111.319-.002-.158-4.962-1.294-9.893-3.4-14.554-3.257-7.206-5.881-14.732-7.87-22.477-.004-.017-.009-.034-.013-.051-5.857-22.845-6.163-47.594-.679-71.687.919-4.038-1.609-8.058-5.648-8.977-4.038-.919-8.058 1.609-8.977 5.648-5.16 22.668-5.63 45.901-1.589 67.929-17.512-.893-32.878 4.525-44.393 15.557-6.707-30.518-6.52-62.827.537-93.832 1.115-4.9 2.414-9.796 3.861-14.551 1.206-3.963-1.03-8.153-4.993-9.358-3.964-1.208-8.153 1.03-9.358 4.992-1.55 5.096-2.942 10.34-4.136 15.587-3.293 14.466-5.166 29.131-5.665 43.748-21.408 7.237-38.334 17.537-47.609 23.913-7.909-7.826-21.533-15.868-37.723-16.407-8.716-.303-16.189 6.996-17.041 16.595-1.879 21.25.438 51.208 5.901 76.321 1.711 7.875 6.44 14.531 13.314 18.741 4.685 2.869 9.929 4.338 15.265 4.338 2.519 0 5.059-.328 7.569-.99 27.513-7.246 55.369-13.101 82.887-17.459 7.076 10.19 18.796 16.503 31.474 16.503 5.453 0 10.754-1.146 15.755-3.406 9.164-4.141 16.195-11.551 19.865-20.891 38.729-2.857 77.917-2.856 116.646.002 3.525 8.964 10.395 16.622 19.842 20.892 4.995 2.261 10.298 3.408 15.762 3.408 12.681 0 24.4-6.316 31.47-16.509 9.037 1.426 18.111 3.007 27.046 4.733.481.093.959.138 1.431.138 3.521 0 6.663-2.493 7.355-6.079.786-4.067-1.874-8.001-5.941-8.786-7.605-1.469-15.311-2.836-23.009-4.095 9.513-23.634 14.787-49.114 15.689-75.039 18.604 6.936 33.051 16.075 40.559 21.365 5.255 3.711 12.26 2.977 16.667-1.757 5.587-6.026 16.033-12.614 28.6-13.033.338-.03 1.428 1.009 1.598 2.925 1.756 19.867-.449 48.055-5.618 71.815-.834 3.839-3.139 7.083-6.49 9.135-3.373 2.066-7.343 2.648-11.185 1.634-7.465-1.961-15.1-3.864-22.693-5.656-4.034-.953-8.071 1.545-9.022 5.576-.952 4.031 1.545 8.071 5.576 9.022 7.471 1.763 14.982 3.636 22.32 5.563 2.512.663 5.052.99 7.572.99 5.336 0 10.581-1.469 15.265-4.337 6.874-4.21 11.603-10.866 13.314-18.74 5.464-25.113 7.781-55.071 5.902-76.324zm-200.736-391.1c18.392-8.443 43.577-9.499 50.31 2.486 3.259 5.803.769 14.129-6.649 22.26-5.995 6.54-5.995 16.404-.012 22.932 7.429 8.143 9.92 16.47 6.662 22.271-6.136 10.92-36.182 16.32-70.812-10.065 1.628-6.121.774-9.528 1.012-23.889 2.778-.369 5.283-.452 7.644-.258 5.888.494 12.786 3.542 14.925 9.241 1.129 3.01 3.987 4.867 7.022 4.867.875 0 1.767-.154 2.634-.48 3.878-1.455 5.842-5.779 4.386-9.656-3.906-10.409-14.785-17.834-27.72-18.918-2.858-.237-5.785-.201-8.891.106v-.607c0-2.674-.355-5.266-1.012-7.736 8.08-6.158 16.398-10.675 20.501-12.554zm-20.86 100.865c-3.363-1.33-6.428-3.091-8.999-5.198-2.84-2.324-6.738-2.96-10.171-1.66-3.415 1.295-5.899 4.335-6.479 7.919-1.267 7.723-.561 15.999 1.919 23.656-18.101-3.64-33.797-12.721-42.977-25.121-3.053-4.129-5.627-8.61-7.716-13.367 8.144-3.472 17.065-8.935 24.014-14.051 5.481 5.679 13.162 9.222 21.66 9.222s16.179-3.543 21.66-9.222c1.804 1.328 3.616 2.592 5.406 3.779-1.093 8.015-.512 16.229 1.683 24.043zm-28.748-95.695c8.337 0 15.119 6.782 15.119 15.119v31.86c0 8.337-6.783 15.119-15.119 15.119-8.337 0-15.119-6.782-15.119-15.119v-31.86c0-8.337 6.782-15.119 15.119-15.119zm-99.918 64.78c-3.259-5.803-.769-14.129 6.649-22.26 5.995-6.54 5.995-16.405.012-22.931-7.429-8.144-9.92-16.47-6.662-22.271 6.734-11.987 31.919-10.932 50.318-2.484 4.097 1.876 12.414 6.393 20.494 12.549-.657 2.47-1.012 5.062-1.012 7.736v.607c-3.107-.308-6.036-.344-8.897-.105-12.929 1.083-23.808 8.509-27.714 18.918-1.456 3.878.508 8.201 4.386 9.656.868.326 1.758.48 2.634.48 3.036 0 5.893-1.857 7.022-4.867 2.139-5.699 9.037-8.748 14.919-9.241 2.364-.196 4.87-.113 7.65.256v16.155c0 2.674.355 5.266 1.012 7.735-34.622 26.38-64.675 20.99-70.811 10.067zm140.791 233.279c-6.091-1.517-12.503 1.347-15.246 6.811-4.617 9.195-14.676 15.135-25.627 15.135s-21.01-5.941-25.627-15.135c-2.744-5.465-9.154-8.33-15.206-6.822-9.668 2.354-19.933-.526-26.514-7.588-4.006-4.298-6.201-9.674-6.306-15.324 19.831 9.173 44.535 13.829 73.653 13.829s53.822-4.656 73.653-13.829c-.104 5.646-2.299 11.024-6.307 15.324-6.648 7.136-16.967 9.913-26.473 7.599zm-40.873-24.092c-46.167 0-103.17-12.579-112.547-72.508-.376-2.404-1.895-4.477-4.076-5.558-2.18-1.081-4.749-1.039-6.892.116-3.166 1.707-6.599 2.572-10.201 2.572-11.871 0-21.529-9.658-21.529-21.53 0-11.871 9.658-21.53 21.529-21.53 4.085 0 8.066 1.156 11.511 3.342 2.071 1.315 4.654 1.534 6.917.585s3.919-2.943 4.434-5.341c5.367-24.968 17.874-48.059 35.313-65.38 5.007-.138 10.241-.833 15.56-2.091 2.628 6.269 5.962 12.158 9.964 17.569 12.992 17.55 36.026 29.649 61.601 32.363.37.04.739.06 1.105.06 3.362 0 6.524-1.654 8.44-4.477 2.151-3.169 2.373-7.246.569-10.663-2.371-4.452-3.784-9.473-4.137-14.481 5.159 2.811 10.958 4.775 17.123 5.776 3.758.622 7.527-.879 9.838-3.914 2.31-3.035 2.751-7.068 1.145-10.538-2.683-5.767-4.074-12.036-4.136-18.305 10.429 5.101 22.352 8.38 34.007 8.702 17.44 17.322 29.947 40.413 35.314 65.381.516 2.398 2.172 4.393 4.434 5.341s4.846.729 6.917-.585c3.445-2.186 7.426-3.342 11.511-3.342 11.871 0 21.529 9.658 21.529 21.53 0 11.871-9.658 21.53-21.529 21.53-3.602 0-7.035-.865-10.201-2.572-2.143-1.155-4.713-1.198-6.892-.116-2.181 1.082-3.7 3.154-4.076 5.558-9.375 59.926-66.378 72.506-112.545 72.506zm-212.117 195.872c-3.835 1.011-7.805.43-11.178-1.636-3.351-2.052-5.656-5.296-6.491-9.136-5.169-23.758-7.374-51.947-5.617-71.81.169-1.908 1.254-2.928 1.594-2.928h.005c12.566.419 23.012 7.007 28.608 13.044 4.396 4.724 11.402 5.459 16.65 1.751 7.515-5.295 21.963-14.435 40.569-21.371.9 25.924 6.172 51.405 15.682 75.039-26.531 4.354-53.335 10.071-79.822 17.047zm118.184-1.451c-9.146 0-17.489-5.383-21.254-13.713-3.214-7.112-5.992-14.433-8.348-21.908 12.332-17.689 30.84-19.202 43.323-17.714 2.021 7.004 4.518 13.836 7.497 20.428 6.931 15.337-4.25 32.907-21.218 32.907zm187.87.003c-16.812 0-28.196-17.474-21.225-32.91 2.979-6.592 5.476-13.424 7.497-20.428 12.482-1.489 30.991.023 43.324 17.711-2.358 7.477-5.137 14.799-8.353 21.914-3.759 8.33-12.098 13.713-21.243 13.713z"/><path d="m207.677 177.496c-4.142 0-7.5 3.358-7.5 7.5v4.393c0 4.142 3.358 7.5 7.5 7.5s7.5-3.358 7.5-7.5v-4.393c0-4.142-3.358-7.5-7.5-7.5z"/><path d="m304.323 177.496c-4.142 0-7.5 3.358-7.5 7.5v4.393c0 4.142 3.358 7.5 7.5 7.5s7.5-3.358 7.5-7.5v-4.393c0-4.142-3.358-7.5-7.5-7.5z"/><path d="m276.324 226.859c-5.49 5.59-12.708 8.668-20.324 8.668s-14.834-3.078-20.324-8.668c-2.901-2.954-7.65-2.998-10.606-.095-2.955 2.902-2.998 7.651-.095 10.606 8.333 8.484 19.351 13.157 31.024 13.157s22.692-4.673 31.024-13.157c2.903-2.955 2.86-7.703-.095-10.606-2.953-2.903-7.702-2.86-10.604.095z"/></g></svg>