<?xml version="1.0" encoding="iso-8859-1"?>
<!-- Generator: Adobe Illustrator 19.0.0, SVG Export Plug-In . SVG Version: 6.00 Build 0)  -->
<svg version="1.1" id="Layer_1" xmlns="http://www.w3.org/2000/svg" xmlns:xlink="http://www.w3.org/1999/xlink" x="0px" y="0px"
	 viewBox="0 0 512 512" style="enable-background:new 0 0 512 512;" xml:space="preserve">
<g>
	<g>
		<path d="M450.021,177.853c-6.735,0-13.285,1.072-19.564,3.169c-32.022-54.599-88.93-92.902-155.035-99.236
			c3.431-21.819,22.313-38.575,45.058-38.669c4.334-0.018,8.087-3.406,8.27-7.737c0.194-4.622-3.496-8.431-8.077-8.431
			c-31.453,0-57.49,23.556-61.441,53.95c-1.078-0.017-2.15-0.055-3.233-0.055c-19.451,0-38.467,2.805-56.589,8.083
			c0-25.172,20.408-45.666,45.548-45.808c4.361-0.025,8.157-3.38,8.341-7.738c0.193-4.623-3.498-8.431-8.078-8.431
			c-34.176,0-61.979,27.803-61.979,61.979c0,1.807,0.095,3.59,0.247,5.357c-42.256,16.232-78.474,46.445-102.021,86.714
			c-6.256-2.079-12.782-3.145-19.489-3.145C27.803,177.853,0,205.656,0,239.832c0,31.728,23.968,57.948,54.746,61.543
			C64.097,404.945,151.128,485.053,256,485.053c50.478,0,96.681-18.61,132.134-49.32c3.549-3.075,3.759-8.513,0.438-11.834
			c-3.016-3.016-7.829-3.133-11.053-0.343c-32.614,28.226-75.103,45.329-121.519,45.329c-98.711,0-180.257-77.136-185.647-175.607
			v-0.001c-0.193-3.525-0.29-7-0.29-10.328c0-30.7,7.643-61.126,22.105-87.993c0-0.001,0.001-0.002,0.002-0.003
			c21.105-39.207,54.962-68.76,94.859-84.687c8.667,23.564,31.261,40.453,57.751,40.639c4.209,0.029,7.99-2.945,8.47-7.126
			c0.562-4.893-3.25-9.04-8.029-9.04c-19.632,0-36.412-12.415-42.919-29.804c17.161-5.171,35.216-7.922,53.696-7.922
			c1.084,0,2.164,0.023,3.244,0.041c3.976,30.211,29.777,53.644,61.008,53.852c4.202,0.028,7.971-2.952,8.451-7.126
			c0.562-4.893-3.249-9.041-8.029-9.041c-22.131,0-40.646-15.776-44.893-36.673c93.261,9.909,166.156,89.041,166.156,184.885
			c0,40.852-13.245,78.669-35.664,109.384c-2.356,3.229-2.051,7.68,0.775,10.506c3.499,3.499,9.304,3.063,12.222-0.931
			c20.988-28.729,34.593-63.177,37.986-100.532C488.034,297.777,512,271.558,512,239.832
			C512,205.656,484.197,177.853,450.021,177.853z M53.895,282.947c0,0.646,0.022,1.317,0.028,1.971
			c-21.43-3.82-37.754-22.578-37.754-45.087c0-25.26,20.55-45.811,45.81-45.811c4.027,0,7.962,0.526,11.775,1.54
			C60.752,222.679,53.895,252.689,53.895,282.947z M458.08,284.918c0.006-0.658,0.025-1.312,0.025-1.97
			c0-31.278-7.144-60.919-19.884-87.38c3.819-1.023,7.763-1.547,11.8-1.547c25.26,0,45.81,20.55,45.81,45.811
			C495.832,262.341,479.508,281.097,458.08,284.918z"/>
	</g>
</g>
<g>
	<g>
		<path d="M382.426,296.903c-0.448-7.541-4.994-14.171-11.861-17.301c-6.837-3.118-14.784-2.206-20.737,2.374
			C327.765,298.949,297.073,307.2,256,307.2s-71.765-8.25-93.826-25.224c-5.958-4.584-13.916-5.495-20.767-2.374
			c-6.845,3.117-11.377,9.712-11.829,17.208c-0.269,4.475-0.303,9.032-0.099,13.543c2.97,65.494,56.627,118.525,122.156,120.731
			c1.476,0.05,2.944,0.074,4.412,0.074c33.046-0.001,64.143-12.546,87.981-35.594c24.908-24.081,38.625-56.42,38.625-91.058
			C382.653,301.983,382.577,299.425,382.426,296.903z M264.261,323.26c0.039-0.001,0.078-0.003,0.116-0.004
			c5.467-0.148,10.77-0.439,15.876-0.877v17.159h-16.168v-16.272h-0.001C264.143,323.264,264.202,323.261,264.261,323.26z
			 M231.747,322.378c5.105,0.438,10.408,0.73,15.875,0.877c0.039,0.001,0.078,0.003,0.116,0.004
			c0.059,0.001,0.117,0.004,0.177,0.005v16.272h-16.168V322.378z M299.945,405.936c-14.834,6.433-31.052,9.546-47.765,8.99
			c-14.383-0.484-28.11-3.778-40.643-9.344c10.631-10.984,26.889-17.539,44.463-17.539c17.614,0,33.899,6.579,44.527,17.603
			C300.325,405.734,300.138,405.837,299.945,405.936z M332.789,383.942c-5.452,5.272-11.342,9.912-17.583,13.891
			c-13.544-16.171-35.517-25.959-59.207-25.959c-23.621,0-45.549,9.74-59.102,25.834c-29.457-18.808-49.592-51.175-51.266-88.086
			c-0.179-3.945-0.15-7.928,0.086-11.839c0.134-2.206,1.717-3.159,2.392-3.466c0.348-0.158,0.985-0.387,1.761-0.387
			c0.732,0,1.589,0.204,2.445,0.861c16.839,12.955,37.735,21.418,63.264,25.567v20.273c0,8.313,6.763,15.075,15.075,15.075h18.354
			c2.523,0,4.899-0.631,6.991-1.731c2.092,1.101,4.468,1.731,6.991,1.731h18.353c8.313,0,15.075-6.763,15.075-15.075v-20.273
			c25.53-4.149,46.427-12.612,63.266-25.568c1.69-1.299,3.337-0.856,4.17-0.476c0.686,0.313,2.294,1.284,2.43,3.551
			c0.13,2.203,0.197,4.439,0.197,6.642C366.484,334.722,354.517,362.933,332.789,383.942z"/>
	</g>
</g>
<g>
	<g>
		<path d="M180.547,196.177c-12.185,0-22.097,9.912-22.097,22.097s9.912,22.097,22.097,22.097s22.097-9.912,22.097-22.097
			S192.732,196.177,180.547,196.177z"/>
	</g>
</g>
<g>
	<g>
		<path d="M331.453,196.177c-12.185,0-22.097,9.912-22.097,22.097s9.912,22.097,22.097,22.097s22.097-9.912,22.097-22.097
			S343.637,196.177,331.453,196.177z"/>
	</g>
</g>
<g>
</g>
<g>
</g>
<g>
</g>
<g>
</g>
<g>
</g>
<g>
</g>
<g>
</g>
<g>
</g>
<g>
</g>
<g>
</g>
<g>
</g>
<g>
</g>
<g>
</g>
<g>
</g>
<g>
</g>
</svg>
