<svg id="Capa_1" enable-background="new 0 0 512 512" height="512" viewBox="0 0 512 512" width="512" xmlns="http://www.w3.org/2000/svg"><g><g><g><path d="m125.646 319.856c-21.91-21.908-57.563-21.912-79.476 0-21.911 21.911-21.911 57.563 0 79.475 0 .001 0 .001.001.001 10.956 10.955 25.347 16.432 39.737 16.432 14.392 0 28.782-5.477 39.738-16.433 21.911-21.911 21.911-57.564 0-79.475zm-10.58 68.896c-16.077 16.079-42.236 16.079-58.315 0-16.077-16.079-16.077-42.239 0-58.315 16.08-16.08 42.24-16.078 58.316 0 16.076 16.077 16.076 42.237-.001 58.315z"/><path d="m97.458 333.847c-2.922-2.92-7.659-2.92-10.581 0-2.921 2.922-2.921 7.658 0 10.581l6.13 6.13c1.461 1.46 3.376 2.191 5.29 2.191s3.829-.731 5.291-2.191c2.921-2.922 2.921-7.659 0-10.581z"/><path d="m70.743 360.564c-2.922-2.92-7.658-2.92-10.581 0-2.921 2.922-2.921 7.658 0 10.581l6.13 6.13c1.461 1.46 3.376 2.191 5.291 2.191 1.914 0 3.829-.73 5.29-2.191 2.921-2.922 2.921-7.658 0-10.581z"/><path d="m465.829 319.819c-21.91-21.908-57.563-21.912-79.476 0-21.911 21.911-21.911 57.563.001 79.476 10.956 10.955 25.347 16.433 39.737 16.433 14.392 0 28.782-5.478 39.738-16.433v-.001c21.911-21.911 21.911-57.564 0-79.475zm-10.581 68.896c-16.076 16.078-42.237 16.079-58.315.001-16.078-16.079-16.078-42.239-.001-58.315 8.041-8.041 18.598-12.059 29.158-12.059 10.558 0 21.12 4.02 29.157 12.059 16.079 16.076 16.079 42.236.001 58.314z"/><path d="m414.541 333.811-6.13 6.13c-2.921 2.922-2.921 7.658 0 10.581 1.461 1.46 3.376 2.191 5.291 2.191 1.914 0 3.829-.73 5.29-2.191l6.13-6.13c2.921-2.922 2.921-7.658 0-10.581-2.923-2.921-7.659-2.921-10.581 0z"/><path d="m441.257 360.527-6.13 6.13c-2.921 2.922-2.921 7.658 0 10.581 1.461 1.46 3.376 2.191 5.29 2.191s3.829-.731 5.291-2.191l6.13-6.13c2.921-2.922 2.921-7.658 0-10.581-2.923-2.921-7.659-2.921-10.581 0z"/><g><path d="m206.409 207.86c4.132 0 7.481-3.349 7.481-7.481v-18.881c0-4.132-3.349-7.481-7.481-7.481s-7.481 3.349-7.481 7.481v18.881c-.001 4.132 3.348 7.481 7.481 7.481z"/><path d="m305.022 207.86c4.132 0 7.481-3.349 7.481-7.481v-18.881c0-4.132-3.349-7.481-7.481-7.481s-7.481 3.349-7.481 7.481v18.881c0 4.132 3.349 7.481 7.481 7.481z"/><path d="m256.066 252.266c8.288 0 16.244-3.048 22.404-8.584 3.073-2.762 3.326-7.491.564-10.564-2.76-3.073-7.49-3.328-10.564-.564-3.409 3.063-7.814 4.75-12.404 4.75-4.842 0-9.425-1.853-12.904-5.218-2.971-2.875-7.708-2.795-10.578.177-2.873 2.97-2.794 7.706.176 10.578 6.284 6.078 14.562 9.425 23.306 9.425z"/><path d="m487.459 298.188c-24.437-24.436-60.485-30.326-90.541-17.71-.138-.855-.26-1.716-.363-2.582-1.952-16.439.601-22.786 5.236-34.309 1.778-4.42 3.792-9.428 5.864-15.787 7.103-21.798 11.318-44.722 12.529-68.134.213-4.126-2.959-7.645-7.085-7.858-.132-.007-.263-.01-.393-.01-3.955 0-7.259 3.101-7.466 7.094-1.143 22.1-5.117 43.724-11.812 64.271-1.916 5.879-3.83 10.64-5.52 14.841-5.001 12.435-8.615 21.418-6.211 41.657.333 2.808.827 5.54 1.43 8.216-4.441 2.964-8.66 6.395-12.576 10.311l-17.867 17.868c-2.968-4.098-6.182-8.006-9.635-11.689 3.399-4.928 5.392-10.896 5.392-17.322 0-9.013-3.924-17.124-10.148-22.726 12.307-15.399 20.399-34.305 22.508-54.958h6.304c15.475 0 28.064-12.59 28.064-28.064 0-15.475-12.589-28.064-28.064-28.064 0 0-13.38.009-13.452.011-76.075-18.864-90.161-52.234-90.719-53.645-.963-3.086-3.773-5.113-7.011-5.157h-.097c-3.216 0-6.048 2.151-7.069 5.209-.114.341-13.505 34.45-90.704 53.593-.072-.002-13.451-.011-13.451-.011-15.475 0-28.064 12.589-28.064 28.064s12.589 28.064 28.064 28.064h6.304c2.109 20.656 10.203 39.564 22.513 54.965-6.225 5.602-10.154 13.706-10.154 22.719 0 6.424 1.992 12.39 5.389 17.317-3.412 3.64-6.58 7.508-9.52 11.551l-17.687-17.687c-3.964-3.964-8.262-7.47-12.827-10.504.586-2.625 1.063-5.307 1.39-8.06 2.404-20.239-1.21-29.222-6.211-41.657-1.689-4.2-3.604-8.962-5.52-14.84-7.905-24.26-11.992-49.81-12.149-75.941-.408-67.884 30.199-100.596 55.947-116.084 30.01-18.051 64.664-21.278 90.44-8.425 2.102 1.048 4.574 1.048 6.677 0 25.777-12.853 60.431-9.626 90.44 8.425 31.488 18.941 50.482 51.614 54.929 94.488.427 4.109 4.086 7.088 8.213 6.67 4.11-.427 7.096-4.103 6.67-8.213-4.95-47.734-26.424-84.307-62.098-105.766-33.109-19.914-71.616-23.837-101.494-10.567-29.878-13.268-68.386-9.347-101.491 10.566-21.695 13.049-38.126 31.575-48.838 55.062-9.694 21.254-14.525 46.128-14.358 73.933.167 27.677 4.501 54.757 12.886 80.488 2.072 6.358 4.086 11.367 5.864 15.786 4.635 11.523 7.188 17.87 5.236 34.309-.097.819-.217 1.631-.346 2.44-9.947-4.146-20.712-6.323-31.814-6.323-22.08.001-42.84 8.6-58.452 24.213-15.614 15.613-24.213 36.373-24.213 58.454s8.599 42.84 24.212 58.453l72.693 72.692c11.868 11.868 26.48 19.35 41.811 22.478 1.291 1.06 2.943 1.697 4.744 1.697h224.13c1.728 0 3.315-.592 4.582-1.576 15.911-3.142 30.54-10.91 42.267-22.636l72.693-72.693c15.613-15.613 24.213-36.373 24.213-58.454-.001-22.08-8.601-42.839-24.214-58.453zm-126.108-129.994h5.755c7.224 0 13.102 5.878 13.102 13.102s-5.878 13.102-13.102 13.102h-5.755zm-210.994 26.204h-5.755c-7.224 0-13.102-5.878-13.102-13.102s5.878-13.102 13.102-13.102h5.755zm14.962 4.167v-31.726c55.399-14.416 80.073-36.612 90.535-50.311 10.461 13.7 35.135 35.896 90.535 50.311v31.726c0 49.921-40.614 90.534-90.535 90.534s-90.535-40.613-90.535-90.534zm144.222 111.952c.006.151.013.302.013.454 0 8.615-7.01 15.624-15.625 15.624-4.104 0-7.982-1.583-10.92-4.457-1.845-1.804-4.492-2.529-6.993-1.922-2.506.608-4.524 2.463-5.337 4.91-2.126 6.396-8.084 10.694-14.825 10.694s-12.699-4.298-14.825-10.694c-.813-2.447-2.831-4.303-5.337-4.91-.583-.141-1.175-.21-1.762-.21-1.932 0-3.817.749-5.231 2.132-2.938 2.874-6.816 4.457-10.92 4.457-8.615 0-15.625-7.009-15.625-15.624 0-.152.007-.303.013-.454l.004-.13c.072-2.073-.72-4.083-2.187-5.549-1.466-1.466-3.485-2.257-5.55-2.186l-.127.004c-.151.006-.302.013-.455.013-8.615 0-15.625-7.01-15.625-15.625 0-4.672 2.067-8.861 5.33-11.722 18.897 17.809 44.343 28.74 72.297 28.74 27.956 0 53.404-10.933 72.301-28.744 3.263 2.86 5.326 7.053 5.326 11.726 0 8.615-7.01 15.625-15.625 15.625-.153 0-.304-.007-.455-.013l-.127-.004c-2.073-.074-4.083.72-5.55 2.186-1.467 1.467-2.259 3.477-2.187 5.549zm-201.728 166.727-29.362-29.362c7.908-.342 15.998-1.026 24.197-2.05 4.1-.512 7.009-4.25 6.497-8.35-.511-4.101-4.256-7.001-8.35-6.497-12.768 1.593-25.223 2.31-37.081 2.161l-28.594-28.594c-12.787-12.787-19.829-29.788-19.829-47.873 0-18.083 7.042-35.086 19.83-47.873 13.2-13.2 30.534-19.798 47.873-19.798 17.334 0 34.676 6.601 47.872 19.798l72.693 72.694c4.737 4.737 8.681 10.054 11.776 15.789-28.17 12.604-55.845 22.029-82.362 28.021-4.03.911-6.559 4.916-5.648 8.946.911 4.029 4.911 6.559 8.946 5.648 27.312-6.172 55.751-15.82 84.643-28.709.059.211.119.422.176.635 1.523 5.696 2.3 11.617 2.3 17.543 0 18.084-7.043 35.085-19.831 47.872-26.398 26.399-69.35 26.398-95.746-.001zm95.329 19.794c3.86-2.71 7.55-5.765 10.997-9.212 15.613-15.613 24.213-36.373 24.213-58.453 0-22.081-8.599-42.841-24.213-58.454l-44.287-44.288c3.035-4.379 6.387-8.523 10.038-12.383 2.461 1.268 5.112 2.218 7.903 2.781 2.819 13.975 15.192 24.529 29.985 24.529 4.753 0 9.352-1.083 13.505-3.132 5.656 7.635 14.683 12.358 24.57 12.358s18.914-4.722 24.57-12.358c4.154 2.049 8.752 3.132 13.505 3.132 14.793 0 27.166-10.555 29.985-24.529 2.792-.563 5.445-1.513 7.907-2.783 3.692 3.905 7.078 8.1 10.139 12.535l-44.1 44.101c-15.614 15.613-24.213 36.373-24.213 58.454 0 22.08 8.599 42.84 24.212 58.453 3.436 3.436 7.133 6.51 11.026 9.249zm201.044-19.831c-26.397 26.399-69.349 26.398-95.746 0-12.787-12.787-19.829-29.789-19.829-47.872 0-6.129.825-12.322 2.476-18.178 59.983 26.757 108.368 35.167 142.472 36.677zm72.692-72.692-28.604 28.604c-32.718.409-84.469-5.818-151.614-35.859 3.095-5.738 7.041-11.058 11.781-15.798l72.693-72.694c12.787-12.787 29.788-19.83 47.872-19.83 18.085.001 35.086 7.043 47.873 19.831 12.788 12.787 19.831 29.789 19.831 47.873-.001 18.084-7.043 35.086-19.832 47.873z"/></g></g></g></g></svg>